# xmcd CD database file
#
# Track frame offsets:
#	150
#	11053
#	21635
#	34703
#	46403
#	61525
#	79315
#	93930
#	103548
#	115928
#	128695
#	137743
#	149570
#	162850
#	176240
#	189833
#	201348
#	213460
#	226103
#	239190
#
# Disc length: 3354 seconds
#
# Revision: 0
# Processed by: cddbd v1.5.1PL2 Copyright (c) Steve Scherf et al.
# Submitted via: CDex 1.50
#
DISCID=1c0d1814
DTITLE=Various Artist - Suomalainen jazz 1929 - 1959 Osa 2: Vuodet 1945 - 1959
DYEAR=1994
DGENRE=Jazz
TTITLE0=TIGER RAG  Fred Kiias Orchestra, 1935
TTITLE1=BLACK PANTHER  Rytmi-Pojat, joht. Eugen Malmstén, 1935
TTITLE2=I'M BEGINNING TO SEE THE LIGHT  Maire Ojonen and Rytmi Orchestra, 1945
TTITLE3=SOME OF THESE DAYS  Ramblers, 1945
TTITLE4=MY SERENADE  Rytmi Swing Ensemble, 1946
TTITLE5=I CAN'T GIVE YOU ANYTHING BUT LOVE, BABY  Maxine Johnson and Olli Häme Quintet, 1947
TTITLE6=DINAH  Kalevi Hartin sekstetti, 1947
TTITLE7=JERSEY BOUNCE  Ossi Aallon orkesteri, 1965/1947
TTITLE8=PERDIDO  Jorma Weneskosken yhtye, 1947
TTITLE9=DARKTOWN STRUTTERS BALL  Stig Wennström Dixieland Band, 1948
TTITLE10=CARAVAN  Studio-orkesteri, 1965/1948
TTITLE11=JAPANESE SANDMAN  Rytmi Swing Ensemble, 1948
TTITLE12=I SURRENDER DEAR  Olli Häme Trio, 1948
TTITLE13=STARDUST  Peanuts Holland and Onni Gideon Quintet, 1950
TTITLE14=JAZZ ME BLUES  Rolle Lindström Dixieland Band, 1950
TTITLE15=LEMON DROP  Olli Häme Quintet, 1950
TTITLE16=NIGHT AND DAY  Synnöve Rehnfors and Olli Häme Quintet, 1950
TTITLE17=MUSKRAT RAMBLE  Fenno Jazz Band, 1950
TTITLE18=NIGHT AND DAY  Kalevi Hartti Quintet, 1950
TTITLE19=BARIT  The Finnish All Stars, 1950
EXTD=YEAR: 1994
EXTT0=
EXTT1=
EXTT2=
EXTT3=
EXTT4=
EXTT5=
EXTT6=
EXTT7=
EXTT8=
EXTT9=
EXTT10=
EXTT11=
EXTT12=
EXTT13=
EXTT14=
EXTT15=
EXTT16=
EXTT17=
EXTT18=
EXTT19=
PLAYORDER=
